%TF.GenerationSoftware,KiCad,Pcbnew,7.0.9*%
%TF.CreationDate,2024-03-25T17:03:35-07:00*%
%TF.ProjectId,sop28-to-dip-24-rom-adapter,736f7032-382d-4746-9f2d-6469702d3234,rev?*%
%TF.SameCoordinates,Original*%
%TF.FileFunction,Drillmap*%
%TF.FilePolarity,Positive*%
%FSLAX45Y45*%
G04 Gerber Fmt 4.5, Leading zero omitted, Abs format (unit mm)*
G04 Created by KiCad (PCBNEW 7.0.9) date 2024-03-25 17:03:35*
%MOMM*%
%LPD*%
G01*
G04 APERTURE LIST*
%ADD10C,0.100000*%
%ADD11C,0.200000*%
G04 APERTURE END LIST*
D10*
X12446000Y-7874000D02*
X14478000Y-7874000D01*
X14478000Y-11176000D01*
X12446000Y-11176000D01*
X12446000Y-7874000D01*
D11*
D10*
X12803950Y-9124000D02*
X12843950Y-9164000D01*
X12843950Y-9124000D02*
X12803950Y-9164000D01*
X13188000Y-9124000D02*
X13228000Y-9164000D01*
X13228000Y-9124000D02*
X13188000Y-9164000D01*
X13442000Y-8870000D02*
X13482000Y-8910000D01*
X13482000Y-8870000D02*
X13442000Y-8910000D01*
X13696000Y-9378000D02*
X13736000Y-9418000D01*
X13736000Y-9378000D02*
X13696000Y-9418000D01*
X12724000Y-8128000D02*
G75*
G03*
X12724000Y-8128000I-40000J0D01*
G01*
X12724000Y-8382000D02*
G75*
G03*
X12724000Y-8382000I-40000J0D01*
G01*
X12724000Y-8636000D02*
G75*
G03*
X12724000Y-8636000I-40000J0D01*
G01*
X12724000Y-8890000D02*
G75*
G03*
X12724000Y-8890000I-40000J0D01*
G01*
X12724000Y-9144000D02*
G75*
G03*
X12724000Y-9144000I-40000J0D01*
G01*
X12724000Y-9398000D02*
G75*
G03*
X12724000Y-9398000I-40000J0D01*
G01*
X12724000Y-9652000D02*
G75*
G03*
X12724000Y-9652000I-40000J0D01*
G01*
X12724000Y-9906000D02*
G75*
G03*
X12724000Y-9906000I-40000J0D01*
G01*
X12724000Y-10160000D02*
G75*
G03*
X12724000Y-10160000I-40000J0D01*
G01*
X12724000Y-10414000D02*
G75*
G03*
X12724000Y-10414000I-40000J0D01*
G01*
X12724000Y-10668000D02*
G75*
G03*
X12724000Y-10668000I-40000J0D01*
G01*
X12724000Y-10922000D02*
G75*
G03*
X12724000Y-10922000I-40000J0D01*
G01*
X12994000Y-8128000D02*
G75*
G03*
X12994000Y-8128000I-40000J0D01*
G01*
X14010000Y-8128000D02*
G75*
G03*
X14010000Y-8128000I-40000J0D01*
G01*
X14248000Y-8128000D02*
G75*
G03*
X14248000Y-8128000I-40000J0D01*
G01*
X14248000Y-8382000D02*
G75*
G03*
X14248000Y-8382000I-40000J0D01*
G01*
X14248000Y-8636000D02*
G75*
G03*
X14248000Y-8636000I-40000J0D01*
G01*
X14248000Y-8890000D02*
G75*
G03*
X14248000Y-8890000I-40000J0D01*
G01*
X14248000Y-9144000D02*
G75*
G03*
X14248000Y-9144000I-40000J0D01*
G01*
X14248000Y-9398000D02*
G75*
G03*
X14248000Y-9398000I-40000J0D01*
G01*
X14248000Y-9652000D02*
G75*
G03*
X14248000Y-9652000I-40000J0D01*
G01*
X14248000Y-9906000D02*
G75*
G03*
X14248000Y-9906000I-40000J0D01*
G01*
X14248000Y-10160000D02*
G75*
G03*
X14248000Y-10160000I-40000J0D01*
G01*
X14248000Y-10414000D02*
G75*
G03*
X14248000Y-10414000I-40000J0D01*
G01*
X14248000Y-10668000D02*
G75*
G03*
X14248000Y-10668000I-40000J0D01*
G01*
X14248000Y-10922000D02*
G75*
G03*
X14248000Y-10922000I-40000J0D01*
G01*
D11*
X12701777Y-11492484D02*
X12701777Y-11292484D01*
X12701777Y-11292484D02*
X12749396Y-11292484D01*
X12749396Y-11292484D02*
X12777967Y-11302008D01*
X12777967Y-11302008D02*
X12797015Y-11321055D01*
X12797015Y-11321055D02*
X12806539Y-11340103D01*
X12806539Y-11340103D02*
X12816062Y-11378198D01*
X12816062Y-11378198D02*
X12816062Y-11406769D01*
X12816062Y-11406769D02*
X12806539Y-11444865D01*
X12806539Y-11444865D02*
X12797015Y-11463912D01*
X12797015Y-11463912D02*
X12777967Y-11482960D01*
X12777967Y-11482960D02*
X12749396Y-11492484D01*
X12749396Y-11492484D02*
X12701777Y-11492484D01*
X12901777Y-11492484D02*
X12901777Y-11359150D01*
X12901777Y-11397246D02*
X12911301Y-11378198D01*
X12911301Y-11378198D02*
X12920824Y-11368674D01*
X12920824Y-11368674D02*
X12939872Y-11359150D01*
X12939872Y-11359150D02*
X12958920Y-11359150D01*
X13025586Y-11492484D02*
X13025586Y-11359150D01*
X13025586Y-11292484D02*
X13016062Y-11302008D01*
X13016062Y-11302008D02*
X13025586Y-11311531D01*
X13025586Y-11311531D02*
X13035110Y-11302008D01*
X13035110Y-11302008D02*
X13025586Y-11292484D01*
X13025586Y-11292484D02*
X13025586Y-11311531D01*
X13149396Y-11492484D02*
X13130348Y-11482960D01*
X13130348Y-11482960D02*
X13120824Y-11463912D01*
X13120824Y-11463912D02*
X13120824Y-11292484D01*
X13254158Y-11492484D02*
X13235110Y-11482960D01*
X13235110Y-11482960D02*
X13225586Y-11463912D01*
X13225586Y-11463912D02*
X13225586Y-11292484D01*
X13482729Y-11492484D02*
X13482729Y-11292484D01*
X13482729Y-11292484D02*
X13549396Y-11435341D01*
X13549396Y-11435341D02*
X13616062Y-11292484D01*
X13616062Y-11292484D02*
X13616062Y-11492484D01*
X13797015Y-11492484D02*
X13797015Y-11387722D01*
X13797015Y-11387722D02*
X13787491Y-11368674D01*
X13787491Y-11368674D02*
X13768443Y-11359150D01*
X13768443Y-11359150D02*
X13730348Y-11359150D01*
X13730348Y-11359150D02*
X13711301Y-11368674D01*
X13797015Y-11482960D02*
X13777967Y-11492484D01*
X13777967Y-11492484D02*
X13730348Y-11492484D01*
X13730348Y-11492484D02*
X13711301Y-11482960D01*
X13711301Y-11482960D02*
X13701777Y-11463912D01*
X13701777Y-11463912D02*
X13701777Y-11444865D01*
X13701777Y-11444865D02*
X13711301Y-11425817D01*
X13711301Y-11425817D02*
X13730348Y-11416293D01*
X13730348Y-11416293D02*
X13777967Y-11416293D01*
X13777967Y-11416293D02*
X13797015Y-11406769D01*
X13892253Y-11359150D02*
X13892253Y-11559150D01*
X13892253Y-11368674D02*
X13911301Y-11359150D01*
X13911301Y-11359150D02*
X13949396Y-11359150D01*
X13949396Y-11359150D02*
X13968443Y-11368674D01*
X13968443Y-11368674D02*
X13977967Y-11378198D01*
X13977967Y-11378198D02*
X13987491Y-11397246D01*
X13987491Y-11397246D02*
X13987491Y-11454388D01*
X13987491Y-11454388D02*
X13977967Y-11473436D01*
X13977967Y-11473436D02*
X13968443Y-11482960D01*
X13968443Y-11482960D02*
X13949396Y-11492484D01*
X13949396Y-11492484D02*
X13911301Y-11492484D01*
X13911301Y-11492484D02*
X13892253Y-11482960D01*
X14073205Y-11473436D02*
X14082729Y-11482960D01*
X14082729Y-11482960D02*
X14073205Y-11492484D01*
X14073205Y-11492484D02*
X14063682Y-11482960D01*
X14063682Y-11482960D02*
X14073205Y-11473436D01*
X14073205Y-11473436D02*
X14073205Y-11492484D01*
X14073205Y-11368674D02*
X14082729Y-11378198D01*
X14082729Y-11378198D02*
X14073205Y-11387722D01*
X14073205Y-11387722D02*
X14063682Y-11378198D01*
X14063682Y-11378198D02*
X14073205Y-11368674D01*
X14073205Y-11368674D02*
X14073205Y-11387722D01*
D10*
X12401000Y-11801000D02*
X12441000Y-11841000D01*
X12441000Y-11801000D02*
X12401000Y-11841000D01*
D11*
X12739872Y-11712484D02*
X12758920Y-11712484D01*
X12758920Y-11712484D02*
X12777967Y-11722008D01*
X12777967Y-11722008D02*
X12787491Y-11731531D01*
X12787491Y-11731531D02*
X12797015Y-11750579D01*
X12797015Y-11750579D02*
X12806539Y-11788674D01*
X12806539Y-11788674D02*
X12806539Y-11836293D01*
X12806539Y-11836293D02*
X12797015Y-11874388D01*
X12797015Y-11874388D02*
X12787491Y-11893436D01*
X12787491Y-11893436D02*
X12777967Y-11902960D01*
X12777967Y-11902960D02*
X12758920Y-11912484D01*
X12758920Y-11912484D02*
X12739872Y-11912484D01*
X12739872Y-11912484D02*
X12720824Y-11902960D01*
X12720824Y-11902960D02*
X12711301Y-11893436D01*
X12711301Y-11893436D02*
X12701777Y-11874388D01*
X12701777Y-11874388D02*
X12692253Y-11836293D01*
X12692253Y-11836293D02*
X12692253Y-11788674D01*
X12692253Y-11788674D02*
X12701777Y-11750579D01*
X12701777Y-11750579D02*
X12711301Y-11731531D01*
X12711301Y-11731531D02*
X12720824Y-11722008D01*
X12720824Y-11722008D02*
X12739872Y-11712484D01*
X12892253Y-11893436D02*
X12901777Y-11902960D01*
X12901777Y-11902960D02*
X12892253Y-11912484D01*
X12892253Y-11912484D02*
X12882729Y-11902960D01*
X12882729Y-11902960D02*
X12892253Y-11893436D01*
X12892253Y-11893436D02*
X12892253Y-11912484D01*
X13073205Y-11779150D02*
X13073205Y-11912484D01*
X13025586Y-11702960D02*
X12977967Y-11845817D01*
X12977967Y-11845817D02*
X13101777Y-11845817D01*
X13216062Y-11712484D02*
X13235110Y-11712484D01*
X13235110Y-11712484D02*
X13254158Y-11722008D01*
X13254158Y-11722008D02*
X13263682Y-11731531D01*
X13263682Y-11731531D02*
X13273205Y-11750579D01*
X13273205Y-11750579D02*
X13282729Y-11788674D01*
X13282729Y-11788674D02*
X13282729Y-11836293D01*
X13282729Y-11836293D02*
X13273205Y-11874388D01*
X13273205Y-11874388D02*
X13263682Y-11893436D01*
X13263682Y-11893436D02*
X13254158Y-11902960D01*
X13254158Y-11902960D02*
X13235110Y-11912484D01*
X13235110Y-11912484D02*
X13216062Y-11912484D01*
X13216062Y-11912484D02*
X13197015Y-11902960D01*
X13197015Y-11902960D02*
X13187491Y-11893436D01*
X13187491Y-11893436D02*
X13177967Y-11874388D01*
X13177967Y-11874388D02*
X13168443Y-11836293D01*
X13168443Y-11836293D02*
X13168443Y-11788674D01*
X13168443Y-11788674D02*
X13177967Y-11750579D01*
X13177967Y-11750579D02*
X13187491Y-11731531D01*
X13187491Y-11731531D02*
X13197015Y-11722008D01*
X13197015Y-11722008D02*
X13216062Y-11712484D01*
X13406539Y-11712484D02*
X13425586Y-11712484D01*
X13425586Y-11712484D02*
X13444634Y-11722008D01*
X13444634Y-11722008D02*
X13454158Y-11731531D01*
X13454158Y-11731531D02*
X13463682Y-11750579D01*
X13463682Y-11750579D02*
X13473205Y-11788674D01*
X13473205Y-11788674D02*
X13473205Y-11836293D01*
X13473205Y-11836293D02*
X13463682Y-11874388D01*
X13463682Y-11874388D02*
X13454158Y-11893436D01*
X13454158Y-11893436D02*
X13444634Y-11902960D01*
X13444634Y-11902960D02*
X13425586Y-11912484D01*
X13425586Y-11912484D02*
X13406539Y-11912484D01*
X13406539Y-11912484D02*
X13387491Y-11902960D01*
X13387491Y-11902960D02*
X13377967Y-11893436D01*
X13377967Y-11893436D02*
X13368443Y-11874388D01*
X13368443Y-11874388D02*
X13358920Y-11836293D01*
X13358920Y-11836293D02*
X13358920Y-11788674D01*
X13358920Y-11788674D02*
X13368443Y-11750579D01*
X13368443Y-11750579D02*
X13377967Y-11731531D01*
X13377967Y-11731531D02*
X13387491Y-11722008D01*
X13387491Y-11722008D02*
X13406539Y-11712484D01*
X13558920Y-11912484D02*
X13558920Y-11779150D01*
X13558920Y-11798198D02*
X13568443Y-11788674D01*
X13568443Y-11788674D02*
X13587491Y-11779150D01*
X13587491Y-11779150D02*
X13616063Y-11779150D01*
X13616063Y-11779150D02*
X13635110Y-11788674D01*
X13635110Y-11788674D02*
X13644634Y-11807722D01*
X13644634Y-11807722D02*
X13644634Y-11912484D01*
X13644634Y-11807722D02*
X13654158Y-11788674D01*
X13654158Y-11788674D02*
X13673205Y-11779150D01*
X13673205Y-11779150D02*
X13701777Y-11779150D01*
X13701777Y-11779150D02*
X13720824Y-11788674D01*
X13720824Y-11788674D02*
X13730348Y-11807722D01*
X13730348Y-11807722D02*
X13730348Y-11912484D01*
X13825586Y-11912484D02*
X13825586Y-11779150D01*
X13825586Y-11798198D02*
X13835110Y-11788674D01*
X13835110Y-11788674D02*
X13854158Y-11779150D01*
X13854158Y-11779150D02*
X13882729Y-11779150D01*
X13882729Y-11779150D02*
X13901777Y-11788674D01*
X13901777Y-11788674D02*
X13911301Y-11807722D01*
X13911301Y-11807722D02*
X13911301Y-11912484D01*
X13911301Y-11807722D02*
X13920824Y-11788674D01*
X13920824Y-11788674D02*
X13939872Y-11779150D01*
X13939872Y-11779150D02*
X13968443Y-11779150D01*
X13968443Y-11779150D02*
X13987491Y-11788674D01*
X13987491Y-11788674D02*
X13997015Y-11807722D01*
X13997015Y-11807722D02*
X13997015Y-11912484D01*
X14387491Y-11702960D02*
X14216063Y-11960103D01*
X14644634Y-11712484D02*
X14663682Y-11712484D01*
X14663682Y-11712484D02*
X14682729Y-11722008D01*
X14682729Y-11722008D02*
X14692253Y-11731531D01*
X14692253Y-11731531D02*
X14701777Y-11750579D01*
X14701777Y-11750579D02*
X14711301Y-11788674D01*
X14711301Y-11788674D02*
X14711301Y-11836293D01*
X14711301Y-11836293D02*
X14701777Y-11874388D01*
X14701777Y-11874388D02*
X14692253Y-11893436D01*
X14692253Y-11893436D02*
X14682729Y-11902960D01*
X14682729Y-11902960D02*
X14663682Y-11912484D01*
X14663682Y-11912484D02*
X14644634Y-11912484D01*
X14644634Y-11912484D02*
X14625586Y-11902960D01*
X14625586Y-11902960D02*
X14616063Y-11893436D01*
X14616063Y-11893436D02*
X14606539Y-11874388D01*
X14606539Y-11874388D02*
X14597015Y-11836293D01*
X14597015Y-11836293D02*
X14597015Y-11788674D01*
X14597015Y-11788674D02*
X14606539Y-11750579D01*
X14606539Y-11750579D02*
X14616063Y-11731531D01*
X14616063Y-11731531D02*
X14625586Y-11722008D01*
X14625586Y-11722008D02*
X14644634Y-11712484D01*
X14797015Y-11893436D02*
X14806539Y-11902960D01*
X14806539Y-11902960D02*
X14797015Y-11912484D01*
X14797015Y-11912484D02*
X14787491Y-11902960D01*
X14787491Y-11902960D02*
X14797015Y-11893436D01*
X14797015Y-11893436D02*
X14797015Y-11912484D01*
X14930348Y-11712484D02*
X14949396Y-11712484D01*
X14949396Y-11712484D02*
X14968444Y-11722008D01*
X14968444Y-11722008D02*
X14977967Y-11731531D01*
X14977967Y-11731531D02*
X14987491Y-11750579D01*
X14987491Y-11750579D02*
X14997015Y-11788674D01*
X14997015Y-11788674D02*
X14997015Y-11836293D01*
X14997015Y-11836293D02*
X14987491Y-11874388D01*
X14987491Y-11874388D02*
X14977967Y-11893436D01*
X14977967Y-11893436D02*
X14968444Y-11902960D01*
X14968444Y-11902960D02*
X14949396Y-11912484D01*
X14949396Y-11912484D02*
X14930348Y-11912484D01*
X14930348Y-11912484D02*
X14911301Y-11902960D01*
X14911301Y-11902960D02*
X14901777Y-11893436D01*
X14901777Y-11893436D02*
X14892253Y-11874388D01*
X14892253Y-11874388D02*
X14882729Y-11836293D01*
X14882729Y-11836293D02*
X14882729Y-11788674D01*
X14882729Y-11788674D02*
X14892253Y-11750579D01*
X14892253Y-11750579D02*
X14901777Y-11731531D01*
X14901777Y-11731531D02*
X14911301Y-11722008D01*
X14911301Y-11722008D02*
X14930348Y-11712484D01*
X15187491Y-11912484D02*
X15073206Y-11912484D01*
X15130348Y-11912484D02*
X15130348Y-11712484D01*
X15130348Y-11712484D02*
X15111301Y-11741055D01*
X15111301Y-11741055D02*
X15092253Y-11760103D01*
X15092253Y-11760103D02*
X15073206Y-11769627D01*
X15368444Y-11712484D02*
X15273206Y-11712484D01*
X15273206Y-11712484D02*
X15263682Y-11807722D01*
X15263682Y-11807722D02*
X15273206Y-11798198D01*
X15273206Y-11798198D02*
X15292253Y-11788674D01*
X15292253Y-11788674D02*
X15339872Y-11788674D01*
X15339872Y-11788674D02*
X15358920Y-11798198D01*
X15358920Y-11798198D02*
X15368444Y-11807722D01*
X15368444Y-11807722D02*
X15377967Y-11826769D01*
X15377967Y-11826769D02*
X15377967Y-11874388D01*
X15377967Y-11874388D02*
X15368444Y-11893436D01*
X15368444Y-11893436D02*
X15358920Y-11902960D01*
X15358920Y-11902960D02*
X15339872Y-11912484D01*
X15339872Y-11912484D02*
X15292253Y-11912484D01*
X15292253Y-11912484D02*
X15273206Y-11902960D01*
X15273206Y-11902960D02*
X15263682Y-11893436D01*
X15444634Y-11712484D02*
X15577967Y-11712484D01*
X15577967Y-11712484D02*
X15492253Y-11912484D01*
X15644634Y-11712484D02*
X15644634Y-11750579D01*
X15720825Y-11712484D02*
X15720825Y-11750579D01*
X16016063Y-11988674D02*
X16006539Y-11979150D01*
X16006539Y-11979150D02*
X15987491Y-11950579D01*
X15987491Y-11950579D02*
X15977968Y-11931531D01*
X15977968Y-11931531D02*
X15968444Y-11902960D01*
X15968444Y-11902960D02*
X15958920Y-11855341D01*
X15958920Y-11855341D02*
X15958920Y-11817246D01*
X15958920Y-11817246D02*
X15968444Y-11769627D01*
X15968444Y-11769627D02*
X15977968Y-11741055D01*
X15977968Y-11741055D02*
X15987491Y-11722008D01*
X15987491Y-11722008D02*
X16006539Y-11693436D01*
X16006539Y-11693436D02*
X16016063Y-11683912D01*
X16177968Y-11779150D02*
X16177968Y-11912484D01*
X16130348Y-11702960D02*
X16082729Y-11845817D01*
X16082729Y-11845817D02*
X16206539Y-11845817D01*
X16435110Y-11912484D02*
X16435110Y-11712484D01*
X16520825Y-11912484D02*
X16520825Y-11807722D01*
X16520825Y-11807722D02*
X16511301Y-11788674D01*
X16511301Y-11788674D02*
X16492253Y-11779150D01*
X16492253Y-11779150D02*
X16463682Y-11779150D01*
X16463682Y-11779150D02*
X16444634Y-11788674D01*
X16444634Y-11788674D02*
X16435110Y-11798198D01*
X16644634Y-11912484D02*
X16625587Y-11902960D01*
X16625587Y-11902960D02*
X16616063Y-11893436D01*
X16616063Y-11893436D02*
X16606539Y-11874388D01*
X16606539Y-11874388D02*
X16606539Y-11817246D01*
X16606539Y-11817246D02*
X16616063Y-11798198D01*
X16616063Y-11798198D02*
X16625587Y-11788674D01*
X16625587Y-11788674D02*
X16644634Y-11779150D01*
X16644634Y-11779150D02*
X16673206Y-11779150D01*
X16673206Y-11779150D02*
X16692253Y-11788674D01*
X16692253Y-11788674D02*
X16701777Y-11798198D01*
X16701777Y-11798198D02*
X16711301Y-11817246D01*
X16711301Y-11817246D02*
X16711301Y-11874388D01*
X16711301Y-11874388D02*
X16701777Y-11893436D01*
X16701777Y-11893436D02*
X16692253Y-11902960D01*
X16692253Y-11902960D02*
X16673206Y-11912484D01*
X16673206Y-11912484D02*
X16644634Y-11912484D01*
X16825587Y-11912484D02*
X16806539Y-11902960D01*
X16806539Y-11902960D02*
X16797015Y-11883912D01*
X16797015Y-11883912D02*
X16797015Y-11712484D01*
X16977968Y-11902960D02*
X16958920Y-11912484D01*
X16958920Y-11912484D02*
X16920825Y-11912484D01*
X16920825Y-11912484D02*
X16901777Y-11902960D01*
X16901777Y-11902960D02*
X16892253Y-11883912D01*
X16892253Y-11883912D02*
X16892253Y-11807722D01*
X16892253Y-11807722D02*
X16901777Y-11788674D01*
X16901777Y-11788674D02*
X16920825Y-11779150D01*
X16920825Y-11779150D02*
X16958920Y-11779150D01*
X16958920Y-11779150D02*
X16977968Y-11788674D01*
X16977968Y-11788674D02*
X16987492Y-11807722D01*
X16987492Y-11807722D02*
X16987492Y-11826769D01*
X16987492Y-11826769D02*
X16892253Y-11845817D01*
X17063682Y-11902960D02*
X17082730Y-11912484D01*
X17082730Y-11912484D02*
X17120825Y-11912484D01*
X17120825Y-11912484D02*
X17139873Y-11902960D01*
X17139873Y-11902960D02*
X17149396Y-11883912D01*
X17149396Y-11883912D02*
X17149396Y-11874388D01*
X17149396Y-11874388D02*
X17139873Y-11855341D01*
X17139873Y-11855341D02*
X17120825Y-11845817D01*
X17120825Y-11845817D02*
X17092253Y-11845817D01*
X17092253Y-11845817D02*
X17073206Y-11836293D01*
X17073206Y-11836293D02*
X17063682Y-11817246D01*
X17063682Y-11817246D02*
X17063682Y-11807722D01*
X17063682Y-11807722D02*
X17073206Y-11788674D01*
X17073206Y-11788674D02*
X17092253Y-11779150D01*
X17092253Y-11779150D02*
X17120825Y-11779150D01*
X17120825Y-11779150D02*
X17139873Y-11788674D01*
X17216063Y-11988674D02*
X17225587Y-11979150D01*
X17225587Y-11979150D02*
X17244634Y-11950579D01*
X17244634Y-11950579D02*
X17254158Y-11931531D01*
X17254158Y-11931531D02*
X17263682Y-11902960D01*
X17263682Y-11902960D02*
X17273206Y-11855341D01*
X17273206Y-11855341D02*
X17273206Y-11817246D01*
X17273206Y-11817246D02*
X17263682Y-11769627D01*
X17263682Y-11769627D02*
X17254158Y-11741055D01*
X17254158Y-11741055D02*
X17244634Y-11722008D01*
X17244634Y-11722008D02*
X17225587Y-11693436D01*
X17225587Y-11693436D02*
X17216063Y-11683912D01*
D10*
X12441000Y-12085000D02*
G75*
G03*
X12441000Y-12085000I-40000J0D01*
G01*
D11*
X12739872Y-11976484D02*
X12758920Y-11976484D01*
X12758920Y-11976484D02*
X12777967Y-11986008D01*
X12777967Y-11986008D02*
X12787491Y-11995531D01*
X12787491Y-11995531D02*
X12797015Y-12014579D01*
X12797015Y-12014579D02*
X12806539Y-12052674D01*
X12806539Y-12052674D02*
X12806539Y-12100293D01*
X12806539Y-12100293D02*
X12797015Y-12138388D01*
X12797015Y-12138388D02*
X12787491Y-12157436D01*
X12787491Y-12157436D02*
X12777967Y-12166960D01*
X12777967Y-12166960D02*
X12758920Y-12176484D01*
X12758920Y-12176484D02*
X12739872Y-12176484D01*
X12739872Y-12176484D02*
X12720824Y-12166960D01*
X12720824Y-12166960D02*
X12711301Y-12157436D01*
X12711301Y-12157436D02*
X12701777Y-12138388D01*
X12701777Y-12138388D02*
X12692253Y-12100293D01*
X12692253Y-12100293D02*
X12692253Y-12052674D01*
X12692253Y-12052674D02*
X12701777Y-12014579D01*
X12701777Y-12014579D02*
X12711301Y-11995531D01*
X12711301Y-11995531D02*
X12720824Y-11986008D01*
X12720824Y-11986008D02*
X12739872Y-11976484D01*
X12892253Y-12157436D02*
X12901777Y-12166960D01*
X12901777Y-12166960D02*
X12892253Y-12176484D01*
X12892253Y-12176484D02*
X12882729Y-12166960D01*
X12882729Y-12166960D02*
X12892253Y-12157436D01*
X12892253Y-12157436D02*
X12892253Y-12176484D01*
X13016062Y-12062198D02*
X12997015Y-12052674D01*
X12997015Y-12052674D02*
X12987491Y-12043150D01*
X12987491Y-12043150D02*
X12977967Y-12024103D01*
X12977967Y-12024103D02*
X12977967Y-12014579D01*
X12977967Y-12014579D02*
X12987491Y-11995531D01*
X12987491Y-11995531D02*
X12997015Y-11986008D01*
X12997015Y-11986008D02*
X13016062Y-11976484D01*
X13016062Y-11976484D02*
X13054158Y-11976484D01*
X13054158Y-11976484D02*
X13073205Y-11986008D01*
X13073205Y-11986008D02*
X13082729Y-11995531D01*
X13082729Y-11995531D02*
X13092253Y-12014579D01*
X13092253Y-12014579D02*
X13092253Y-12024103D01*
X13092253Y-12024103D02*
X13082729Y-12043150D01*
X13082729Y-12043150D02*
X13073205Y-12052674D01*
X13073205Y-12052674D02*
X13054158Y-12062198D01*
X13054158Y-12062198D02*
X13016062Y-12062198D01*
X13016062Y-12062198D02*
X12997015Y-12071722D01*
X12997015Y-12071722D02*
X12987491Y-12081246D01*
X12987491Y-12081246D02*
X12977967Y-12100293D01*
X12977967Y-12100293D02*
X12977967Y-12138388D01*
X12977967Y-12138388D02*
X12987491Y-12157436D01*
X12987491Y-12157436D02*
X12997015Y-12166960D01*
X12997015Y-12166960D02*
X13016062Y-12176484D01*
X13016062Y-12176484D02*
X13054158Y-12176484D01*
X13054158Y-12176484D02*
X13073205Y-12166960D01*
X13073205Y-12166960D02*
X13082729Y-12157436D01*
X13082729Y-12157436D02*
X13092253Y-12138388D01*
X13092253Y-12138388D02*
X13092253Y-12100293D01*
X13092253Y-12100293D02*
X13082729Y-12081246D01*
X13082729Y-12081246D02*
X13073205Y-12071722D01*
X13073205Y-12071722D02*
X13054158Y-12062198D01*
X13216062Y-11976484D02*
X13235110Y-11976484D01*
X13235110Y-11976484D02*
X13254158Y-11986008D01*
X13254158Y-11986008D02*
X13263682Y-11995531D01*
X13263682Y-11995531D02*
X13273205Y-12014579D01*
X13273205Y-12014579D02*
X13282729Y-12052674D01*
X13282729Y-12052674D02*
X13282729Y-12100293D01*
X13282729Y-12100293D02*
X13273205Y-12138388D01*
X13273205Y-12138388D02*
X13263682Y-12157436D01*
X13263682Y-12157436D02*
X13254158Y-12166960D01*
X13254158Y-12166960D02*
X13235110Y-12176484D01*
X13235110Y-12176484D02*
X13216062Y-12176484D01*
X13216062Y-12176484D02*
X13197015Y-12166960D01*
X13197015Y-12166960D02*
X13187491Y-12157436D01*
X13187491Y-12157436D02*
X13177967Y-12138388D01*
X13177967Y-12138388D02*
X13168443Y-12100293D01*
X13168443Y-12100293D02*
X13168443Y-12052674D01*
X13168443Y-12052674D02*
X13177967Y-12014579D01*
X13177967Y-12014579D02*
X13187491Y-11995531D01*
X13187491Y-11995531D02*
X13197015Y-11986008D01*
X13197015Y-11986008D02*
X13216062Y-11976484D01*
X13406539Y-11976484D02*
X13425586Y-11976484D01*
X13425586Y-11976484D02*
X13444634Y-11986008D01*
X13444634Y-11986008D02*
X13454158Y-11995531D01*
X13454158Y-11995531D02*
X13463682Y-12014579D01*
X13463682Y-12014579D02*
X13473205Y-12052674D01*
X13473205Y-12052674D02*
X13473205Y-12100293D01*
X13473205Y-12100293D02*
X13463682Y-12138388D01*
X13463682Y-12138388D02*
X13454158Y-12157436D01*
X13454158Y-12157436D02*
X13444634Y-12166960D01*
X13444634Y-12166960D02*
X13425586Y-12176484D01*
X13425586Y-12176484D02*
X13406539Y-12176484D01*
X13406539Y-12176484D02*
X13387491Y-12166960D01*
X13387491Y-12166960D02*
X13377967Y-12157436D01*
X13377967Y-12157436D02*
X13368443Y-12138388D01*
X13368443Y-12138388D02*
X13358920Y-12100293D01*
X13358920Y-12100293D02*
X13358920Y-12052674D01*
X13358920Y-12052674D02*
X13368443Y-12014579D01*
X13368443Y-12014579D02*
X13377967Y-11995531D01*
X13377967Y-11995531D02*
X13387491Y-11986008D01*
X13387491Y-11986008D02*
X13406539Y-11976484D01*
X13558920Y-12176484D02*
X13558920Y-12043150D01*
X13558920Y-12062198D02*
X13568443Y-12052674D01*
X13568443Y-12052674D02*
X13587491Y-12043150D01*
X13587491Y-12043150D02*
X13616063Y-12043150D01*
X13616063Y-12043150D02*
X13635110Y-12052674D01*
X13635110Y-12052674D02*
X13644634Y-12071722D01*
X13644634Y-12071722D02*
X13644634Y-12176484D01*
X13644634Y-12071722D02*
X13654158Y-12052674D01*
X13654158Y-12052674D02*
X13673205Y-12043150D01*
X13673205Y-12043150D02*
X13701777Y-12043150D01*
X13701777Y-12043150D02*
X13720824Y-12052674D01*
X13720824Y-12052674D02*
X13730348Y-12071722D01*
X13730348Y-12071722D02*
X13730348Y-12176484D01*
X13825586Y-12176484D02*
X13825586Y-12043150D01*
X13825586Y-12062198D02*
X13835110Y-12052674D01*
X13835110Y-12052674D02*
X13854158Y-12043150D01*
X13854158Y-12043150D02*
X13882729Y-12043150D01*
X13882729Y-12043150D02*
X13901777Y-12052674D01*
X13901777Y-12052674D02*
X13911301Y-12071722D01*
X13911301Y-12071722D02*
X13911301Y-12176484D01*
X13911301Y-12071722D02*
X13920824Y-12052674D01*
X13920824Y-12052674D02*
X13939872Y-12043150D01*
X13939872Y-12043150D02*
X13968443Y-12043150D01*
X13968443Y-12043150D02*
X13987491Y-12052674D01*
X13987491Y-12052674D02*
X13997015Y-12071722D01*
X13997015Y-12071722D02*
X13997015Y-12176484D01*
X14387491Y-11966960D02*
X14216063Y-12224103D01*
X14644634Y-11976484D02*
X14663682Y-11976484D01*
X14663682Y-11976484D02*
X14682729Y-11986008D01*
X14682729Y-11986008D02*
X14692253Y-11995531D01*
X14692253Y-11995531D02*
X14701777Y-12014579D01*
X14701777Y-12014579D02*
X14711301Y-12052674D01*
X14711301Y-12052674D02*
X14711301Y-12100293D01*
X14711301Y-12100293D02*
X14701777Y-12138388D01*
X14701777Y-12138388D02*
X14692253Y-12157436D01*
X14692253Y-12157436D02*
X14682729Y-12166960D01*
X14682729Y-12166960D02*
X14663682Y-12176484D01*
X14663682Y-12176484D02*
X14644634Y-12176484D01*
X14644634Y-12176484D02*
X14625586Y-12166960D01*
X14625586Y-12166960D02*
X14616063Y-12157436D01*
X14616063Y-12157436D02*
X14606539Y-12138388D01*
X14606539Y-12138388D02*
X14597015Y-12100293D01*
X14597015Y-12100293D02*
X14597015Y-12052674D01*
X14597015Y-12052674D02*
X14606539Y-12014579D01*
X14606539Y-12014579D02*
X14616063Y-11995531D01*
X14616063Y-11995531D02*
X14625586Y-11986008D01*
X14625586Y-11986008D02*
X14644634Y-11976484D01*
X14797015Y-12157436D02*
X14806539Y-12166960D01*
X14806539Y-12166960D02*
X14797015Y-12176484D01*
X14797015Y-12176484D02*
X14787491Y-12166960D01*
X14787491Y-12166960D02*
X14797015Y-12157436D01*
X14797015Y-12157436D02*
X14797015Y-12176484D01*
X14930348Y-11976484D02*
X14949396Y-11976484D01*
X14949396Y-11976484D02*
X14968444Y-11986008D01*
X14968444Y-11986008D02*
X14977967Y-11995531D01*
X14977967Y-11995531D02*
X14987491Y-12014579D01*
X14987491Y-12014579D02*
X14997015Y-12052674D01*
X14997015Y-12052674D02*
X14997015Y-12100293D01*
X14997015Y-12100293D02*
X14987491Y-12138388D01*
X14987491Y-12138388D02*
X14977967Y-12157436D01*
X14977967Y-12157436D02*
X14968444Y-12166960D01*
X14968444Y-12166960D02*
X14949396Y-12176484D01*
X14949396Y-12176484D02*
X14930348Y-12176484D01*
X14930348Y-12176484D02*
X14911301Y-12166960D01*
X14911301Y-12166960D02*
X14901777Y-12157436D01*
X14901777Y-12157436D02*
X14892253Y-12138388D01*
X14892253Y-12138388D02*
X14882729Y-12100293D01*
X14882729Y-12100293D02*
X14882729Y-12052674D01*
X14882729Y-12052674D02*
X14892253Y-12014579D01*
X14892253Y-12014579D02*
X14901777Y-11995531D01*
X14901777Y-11995531D02*
X14911301Y-11986008D01*
X14911301Y-11986008D02*
X14930348Y-11976484D01*
X15063682Y-11976484D02*
X15187491Y-11976484D01*
X15187491Y-11976484D02*
X15120825Y-12052674D01*
X15120825Y-12052674D02*
X15149396Y-12052674D01*
X15149396Y-12052674D02*
X15168444Y-12062198D01*
X15168444Y-12062198D02*
X15177967Y-12071722D01*
X15177967Y-12071722D02*
X15187491Y-12090769D01*
X15187491Y-12090769D02*
X15187491Y-12138388D01*
X15187491Y-12138388D02*
X15177967Y-12157436D01*
X15177967Y-12157436D02*
X15168444Y-12166960D01*
X15168444Y-12166960D02*
X15149396Y-12176484D01*
X15149396Y-12176484D02*
X15092253Y-12176484D01*
X15092253Y-12176484D02*
X15073206Y-12166960D01*
X15073206Y-12166960D02*
X15063682Y-12157436D01*
X15377967Y-12176484D02*
X15263682Y-12176484D01*
X15320825Y-12176484D02*
X15320825Y-11976484D01*
X15320825Y-11976484D02*
X15301777Y-12005055D01*
X15301777Y-12005055D02*
X15282729Y-12024103D01*
X15282729Y-12024103D02*
X15263682Y-12033627D01*
X15558920Y-11976484D02*
X15463682Y-11976484D01*
X15463682Y-11976484D02*
X15454158Y-12071722D01*
X15454158Y-12071722D02*
X15463682Y-12062198D01*
X15463682Y-12062198D02*
X15482729Y-12052674D01*
X15482729Y-12052674D02*
X15530348Y-12052674D01*
X15530348Y-12052674D02*
X15549396Y-12062198D01*
X15549396Y-12062198D02*
X15558920Y-12071722D01*
X15558920Y-12071722D02*
X15568444Y-12090769D01*
X15568444Y-12090769D02*
X15568444Y-12138388D01*
X15568444Y-12138388D02*
X15558920Y-12157436D01*
X15558920Y-12157436D02*
X15549396Y-12166960D01*
X15549396Y-12166960D02*
X15530348Y-12176484D01*
X15530348Y-12176484D02*
X15482729Y-12176484D01*
X15482729Y-12176484D02*
X15463682Y-12166960D01*
X15463682Y-12166960D02*
X15454158Y-12157436D01*
X15644634Y-11976484D02*
X15644634Y-12014579D01*
X15720825Y-11976484D02*
X15720825Y-12014579D01*
X16016063Y-12252674D02*
X16006539Y-12243150D01*
X16006539Y-12243150D02*
X15987491Y-12214579D01*
X15987491Y-12214579D02*
X15977968Y-12195531D01*
X15977968Y-12195531D02*
X15968444Y-12166960D01*
X15968444Y-12166960D02*
X15958920Y-12119341D01*
X15958920Y-12119341D02*
X15958920Y-12081246D01*
X15958920Y-12081246D02*
X15968444Y-12033627D01*
X15968444Y-12033627D02*
X15977968Y-12005055D01*
X15977968Y-12005055D02*
X15987491Y-11986008D01*
X15987491Y-11986008D02*
X16006539Y-11957436D01*
X16006539Y-11957436D02*
X16016063Y-11947912D01*
X16082729Y-11995531D02*
X16092253Y-11986008D01*
X16092253Y-11986008D02*
X16111301Y-11976484D01*
X16111301Y-11976484D02*
X16158920Y-11976484D01*
X16158920Y-11976484D02*
X16177968Y-11986008D01*
X16177968Y-11986008D02*
X16187491Y-11995531D01*
X16187491Y-11995531D02*
X16197015Y-12014579D01*
X16197015Y-12014579D02*
X16197015Y-12033627D01*
X16197015Y-12033627D02*
X16187491Y-12062198D01*
X16187491Y-12062198D02*
X16073206Y-12176484D01*
X16073206Y-12176484D02*
X16197015Y-12176484D01*
X16368444Y-11976484D02*
X16330348Y-11976484D01*
X16330348Y-11976484D02*
X16311301Y-11986008D01*
X16311301Y-11986008D02*
X16301777Y-11995531D01*
X16301777Y-11995531D02*
X16282729Y-12024103D01*
X16282729Y-12024103D02*
X16273206Y-12062198D01*
X16273206Y-12062198D02*
X16273206Y-12138388D01*
X16273206Y-12138388D02*
X16282729Y-12157436D01*
X16282729Y-12157436D02*
X16292253Y-12166960D01*
X16292253Y-12166960D02*
X16311301Y-12176484D01*
X16311301Y-12176484D02*
X16349396Y-12176484D01*
X16349396Y-12176484D02*
X16368444Y-12166960D01*
X16368444Y-12166960D02*
X16377968Y-12157436D01*
X16377968Y-12157436D02*
X16387491Y-12138388D01*
X16387491Y-12138388D02*
X16387491Y-12090769D01*
X16387491Y-12090769D02*
X16377968Y-12071722D01*
X16377968Y-12071722D02*
X16368444Y-12062198D01*
X16368444Y-12062198D02*
X16349396Y-12052674D01*
X16349396Y-12052674D02*
X16311301Y-12052674D01*
X16311301Y-12052674D02*
X16292253Y-12062198D01*
X16292253Y-12062198D02*
X16282729Y-12071722D01*
X16282729Y-12071722D02*
X16273206Y-12090769D01*
X16625587Y-12176484D02*
X16625587Y-11976484D01*
X16711301Y-12176484D02*
X16711301Y-12071722D01*
X16711301Y-12071722D02*
X16701777Y-12052674D01*
X16701777Y-12052674D02*
X16682730Y-12043150D01*
X16682730Y-12043150D02*
X16654158Y-12043150D01*
X16654158Y-12043150D02*
X16635110Y-12052674D01*
X16635110Y-12052674D02*
X16625587Y-12062198D01*
X16835111Y-12176484D02*
X16816063Y-12166960D01*
X16816063Y-12166960D02*
X16806539Y-12157436D01*
X16806539Y-12157436D02*
X16797015Y-12138388D01*
X16797015Y-12138388D02*
X16797015Y-12081246D01*
X16797015Y-12081246D02*
X16806539Y-12062198D01*
X16806539Y-12062198D02*
X16816063Y-12052674D01*
X16816063Y-12052674D02*
X16835111Y-12043150D01*
X16835111Y-12043150D02*
X16863682Y-12043150D01*
X16863682Y-12043150D02*
X16882730Y-12052674D01*
X16882730Y-12052674D02*
X16892253Y-12062198D01*
X16892253Y-12062198D02*
X16901777Y-12081246D01*
X16901777Y-12081246D02*
X16901777Y-12138388D01*
X16901777Y-12138388D02*
X16892253Y-12157436D01*
X16892253Y-12157436D02*
X16882730Y-12166960D01*
X16882730Y-12166960D02*
X16863682Y-12176484D01*
X16863682Y-12176484D02*
X16835111Y-12176484D01*
X17016063Y-12176484D02*
X16997015Y-12166960D01*
X16997015Y-12166960D02*
X16987492Y-12147912D01*
X16987492Y-12147912D02*
X16987492Y-11976484D01*
X17168444Y-12166960D02*
X17149396Y-12176484D01*
X17149396Y-12176484D02*
X17111301Y-12176484D01*
X17111301Y-12176484D02*
X17092253Y-12166960D01*
X17092253Y-12166960D02*
X17082730Y-12147912D01*
X17082730Y-12147912D02*
X17082730Y-12071722D01*
X17082730Y-12071722D02*
X17092253Y-12052674D01*
X17092253Y-12052674D02*
X17111301Y-12043150D01*
X17111301Y-12043150D02*
X17149396Y-12043150D01*
X17149396Y-12043150D02*
X17168444Y-12052674D01*
X17168444Y-12052674D02*
X17177968Y-12071722D01*
X17177968Y-12071722D02*
X17177968Y-12090769D01*
X17177968Y-12090769D02*
X17082730Y-12109817D01*
X17254158Y-12166960D02*
X17273206Y-12176484D01*
X17273206Y-12176484D02*
X17311301Y-12176484D01*
X17311301Y-12176484D02*
X17330349Y-12166960D01*
X17330349Y-12166960D02*
X17339873Y-12147912D01*
X17339873Y-12147912D02*
X17339873Y-12138388D01*
X17339873Y-12138388D02*
X17330349Y-12119341D01*
X17330349Y-12119341D02*
X17311301Y-12109817D01*
X17311301Y-12109817D02*
X17282730Y-12109817D01*
X17282730Y-12109817D02*
X17263682Y-12100293D01*
X17263682Y-12100293D02*
X17254158Y-12081246D01*
X17254158Y-12081246D02*
X17254158Y-12071722D01*
X17254158Y-12071722D02*
X17263682Y-12052674D01*
X17263682Y-12052674D02*
X17282730Y-12043150D01*
X17282730Y-12043150D02*
X17311301Y-12043150D01*
X17311301Y-12043150D02*
X17330349Y-12052674D01*
X17406539Y-12252674D02*
X17416063Y-12243150D01*
X17416063Y-12243150D02*
X17435111Y-12214579D01*
X17435111Y-12214579D02*
X17444634Y-12195531D01*
X17444634Y-12195531D02*
X17454158Y-12166960D01*
X17454158Y-12166960D02*
X17463682Y-12119341D01*
X17463682Y-12119341D02*
X17463682Y-12081246D01*
X17463682Y-12081246D02*
X17454158Y-12033627D01*
X17454158Y-12033627D02*
X17444634Y-12005055D01*
X17444634Y-12005055D02*
X17435111Y-11986008D01*
X17435111Y-11986008D02*
X17416063Y-11957436D01*
X17416063Y-11957436D02*
X17406539Y-11947912D01*
M02*
