M48
; DRILL file {KiCad 7.0.9} date Wed Apr 24 12:06:24 2024
; FORMAT={-:-/ absolute / metric / decimal}
; #@! TF.CreationDate,2024-04-24T12:06:24-07:00
; #@! TF.GenerationSoftware,Kicad,Pcbnew,7.0.9
; #@! TF.FileFunction,Plated,1,2,PTH
FMAT,2
METRIC
; #@! TA.AperFunction,Plated,PTH,ViaDrill
T1C0.400
; #@! TA.AperFunction,Plated,PTH,ComponentDrill
T2C0.800
%
G90
G05
T1
X128.24Y-91.44
X132.08Y-91.44
X134.62Y-88.9
X137.16Y-93.98
T2
X126.84Y-81.28
X126.84Y-83.82
X126.84Y-86.36
X126.84Y-88.9
X126.84Y-91.44
X126.84Y-93.98
X126.84Y-96.52
X126.84Y-99.06
X126.84Y-101.6
X126.84Y-104.14
X126.84Y-106.68
X126.84Y-109.22
X129.54Y-82.55
X139.7Y-82.55
X142.08Y-81.28
X142.08Y-83.82
X142.08Y-86.36
X142.08Y-88.9
X142.08Y-91.44
X142.08Y-93.98
X142.08Y-96.52
X142.08Y-99.06
X142.08Y-101.6
X142.08Y-104.14
X142.08Y-106.68
X142.08Y-109.22
T0
M30
