G04 #@! TF.GenerationSoftware,KiCad,Pcbnew,7.0.9*
G04 #@! TF.CreationDate,2024-04-24T12:06:22-07:00*
G04 #@! TF.ProjectId,sop28-to-dip-24-rom-adapter,736f7032-382d-4746-9f2d-6469702d3234,2B*
G04 #@! TF.SameCoordinates,Original*
G04 #@! TF.FileFunction,Copper,L2,Bot*
G04 #@! TF.FilePolarity,Positive*
%FSLAX46Y46*%
G04 Gerber Fmt 4.6, Leading zero omitted, Abs format (unit mm)*
G04 Created by KiCad (PCBNEW 7.0.9) date 2024-04-24 12:06:22*
%MOMM*%
%LPD*%
G01*
G04 APERTURE LIST*
G04 #@! TA.AperFunction,ComponentPad*
%ADD10C,1.600000*%
G04 #@! TD*
G04 #@! TA.AperFunction,ComponentPad*
%ADD11O,1.600000X1.600000*%
G04 #@! TD*
G04 #@! TA.AperFunction,ComponentPad*
%ADD12R,1.600000X1.600000*%
G04 #@! TD*
G04 #@! TA.AperFunction,ViaPad*
%ADD13C,0.800000*%
G04 #@! TD*
G04 #@! TA.AperFunction,Conductor*
%ADD14C,0.250000*%
G04 #@! TD*
G04 APERTURE END LIST*
D10*
X139700000Y-82550000D03*
D11*
X129540000Y-82550000D03*
D12*
X126840000Y-81280000D03*
D11*
X126840000Y-83820000D03*
X126840000Y-86360000D03*
X126840000Y-88900000D03*
X126840000Y-91440000D03*
X126840000Y-93980000D03*
X126840000Y-96520000D03*
X126840000Y-99060000D03*
X126840000Y-101600000D03*
X126840000Y-104140000D03*
X126840000Y-106680000D03*
X126840000Y-109220000D03*
X142080000Y-109220000D03*
X142080000Y-106680000D03*
X142080000Y-104140000D03*
X142080000Y-101600000D03*
X142080000Y-99060000D03*
X142080000Y-96520000D03*
X142080000Y-93980000D03*
X142080000Y-91440000D03*
X142080000Y-88900000D03*
X142080000Y-86360000D03*
X142080000Y-83820000D03*
X142080000Y-81280000D03*
D13*
X134620000Y-88900000D03*
X132080000Y-91440000D03*
X128239503Y-91440000D03*
X137160000Y-93980000D03*
D14*
X134620000Y-88900000D02*
X142080000Y-88900000D01*
X132080000Y-88900000D02*
X129540000Y-86360000D01*
X132080000Y-91440000D02*
X132080000Y-88900000D01*
X129540000Y-86360000D02*
X126840000Y-86360000D01*
X128239503Y-90299503D02*
X126840000Y-88900000D01*
X128239503Y-91440000D02*
X128239503Y-90299503D01*
X137160000Y-93980000D02*
X139700000Y-96520000D01*
X139700000Y-96520000D02*
X142080000Y-96520000D01*
M02*
